<?xml version="1.0" encoding="UTF-8"?>
<svg version="1.1" xmlns="http://www.w3.org/2000/svg" width="512" height="512">
<path d="M0 0 C0.77730469 0.68449219 1.55460937 1.36898437 2.35546875 2.07421875 C16.49656446 15.24174505 23.25420524 32.44028609 27 51 C27.26925293 52.31581055 27.26925293 52.31581055 27.54394531 53.65820312 C30.34673835 67.5494541 32.41773513 81.03850092 31.6875 95.25 C31.5773242 97.79676043 31.5773242 97.79676043 32 100 C34.66666667 102.5 34.66666667 102.5 38 104 C45.53070574 112.15826455 45.26848294 121.91422553 45.14453125 132.47265625 C44.71852758 142.86944848 42.56495097 151.62729279 34.8515625 159.07421875 C26.46070498 165.90431949 18.69645871 168.18129591 8 168 C8.03480469 168.7528125 8.06960938 169.505625 8.10546875 170.28125 C8.70049652 193.62900644 0.55560832 215.21382165 -15.36279297 232.34179688 C-19.36183613 236.39212511 -23.73638017 240.02457492 -28.12890625 243.63671875 C-32.30706229 246.78988397 -32.30706229 246.78988397 -33.4140625 251.6953125 C-33.49385065 253.1713933 -33.56377855 254.64803263 -33.625 256.125 C-33.66367187 256.87910156 -33.70234375 257.63320313 -33.7421875 258.41015625 C-33.83651031 260.27303184 -33.91934662 262.13648255 -34 264 C-33.44849525 264.11515583 -32.89699051 264.23031166 -32.3287735 264.34895706 C-26.97507765 265.49806271 -21.7627556 266.88911286 -16.53710938 268.51855469 C-15.34714859 268.88492538 -15.34714859 268.88492538 -14.13314819 269.25869751 C-11.53556462 270.05952201 -8.93962033 270.86551592 -6.34375 271.671875 C-4.51410468 272.23778454 -2.68439152 272.80347476 -0.85461426 273.36895752 C2.97557538 274.55355145 6.80496195 275.74069726 10.63378906 276.9296875 C15.49217978 278.4381892 20.35245202 279.94051842 25.21335602 281.4408989 C28.99442969 282.60872208 32.77447861 283.77983474 36.554245 284.95188141 C38.34293092 285.50612613 40.1319126 286.05941745 41.92121887 286.61165619 C50.74977964 289.3384026 59.55202153 292.12363822 68.27929688 295.16113281 C68.95357979 295.39302685 69.6278627 295.62492088 70.32257843 295.86384201 C90.84183146 303.12334791 106.8184293 318.5534235 116.26928711 337.96899414 C123.78920338 353.99953082 125.31759748 369.55224429 125.30078125 387.0078125 C125.30467726 388.70840559 125.30901376 390.40899771 125.31376648 392.10958862 C125.32116899 395.64438055 125.32097741 399.17907243 125.31567383 402.71386719 C125.3098307 407.24556915 125.32695435 411.7768688 125.3500185 416.3085041 C125.36471862 419.80687859 125.36563362 423.30515465 125.36250877 426.80355453 C125.36302202 428.47573531 125.36826044 430.14792158 125.37832069 431.82007217 C125.39062068 434.14610882 125.38393743 436.47134013 125.37231445 438.79736328 C125.37995819 439.48616074 125.38760193 440.17495819 125.39547729 440.8846283 C125.36684833 443.46914777 125.3437047 445.46615275 123.92082787 447.6761862 C120.97040985 449.7095824 118.44566205 449.37620192 114.89253235 449.37752342 C114.16059217 449.38188374 113.428652 449.38624407 112.67453182 449.39073652 C110.20251426 449.40175363 107.73104742 449.39124109 105.2590332 449.38095093 C103.47666544 449.38440495 101.6942998 449.38916778 99.91193867 449.39513266 C94.99897101 449.40770748 90.08617717 449.40144295 85.17320871 449.39217401 C79.88070884 449.38541028 74.5882397 449.3958514 69.29574585 449.40411377 C58.92176957 449.41748199 48.54785825 449.41455964 38.17387938 449.40587585 C29.74576644 449.39911183 21.31767176 449.39817701 12.88955688 449.4014473 C11.69187347 449.401907 10.49419005 449.40236669 9.2602132 449.40284032 C6.82745099 449.40379946 4.39468878 449.4047721 1.96192658 449.4057581 C-20.87182861 449.41432104 -43.70554771 449.40446369 -66.53929698 449.388357 C-86.14893742 449.37495301 -105.75852459 449.37728084 -125.36816406 449.39111328 C-148.1179546 449.40715314 -170.86771349 449.41349698 -193.61750889 449.40427649 C-196.04152488 449.4033208 -198.46554088 449.40237769 -200.88955688 449.4014473 C-202.08234542 449.40098447 -203.27513396 449.40052164 -204.5040676 449.40004479 C-212.92600842 449.39745011 -221.34792922 449.40183617 -229.76986694 449.40888596 C-240.027732 449.41728347 -250.28552815 449.41505776 -260.54338527 449.39904372 C-265.78115556 449.39113739 -271.01881081 449.38810946 -276.25658035 449.39799118 C-281.04559299 449.40688989 -285.83438325 449.40208544 -290.62337554 449.38605852 C-292.36154891 449.38269015 -294.09974084 449.38445051 -295.83790243 449.39168589 C-298.18971776 449.4007294 -300.54075839 449.39153344 -302.89253235 449.37752342 C-304.20208043 449.37703637 -305.51162851 449.37654931 -306.86085987 449.37604749 C-310 449 -310 449 -311.9204073 447.67450392 C-313.72774397 444.8712316 -313.38219792 442.1460126 -313.38818359 438.86083984 C-313.39344055 438.13668381 -313.39869751 437.41252777 -313.40411377 436.66642761 C-313.41734592 434.26437964 -313.40855188 431.86299268 -313.3984375 429.4609375 C-313.40046039 427.7795906 -313.40337361 426.09824455 -313.40713501 424.41690063 C-313.41156522 420.88103945 -313.40511638 417.34540513 -313.39111328 413.80957031 C-313.37420444 409.32601018 -313.38374001 404.84299613 -313.40183067 400.35945702 C-313.4128081 396.8776356 -313.40915614 393.39593778 -313.4014473 389.91411209 C-313.39947388 388.26467446 -313.40180149 386.61522484 -313.40888596 384.96580124 C-313.49796594 358.34541244 -307.11047146 334.46011252 -288.02734375 314.97265625 C-276.93374983 303.96939539 -264.27621644 297.54167952 -249.55078125 292.74609375 C-248.65012939 292.44947845 -247.74947754 292.15286316 -246.8215332 291.84725952 C-235.42872213 288.1209014 -223.96345875 284.62632196 -212.5 281.125 C-209.0552746 280.07017345 -205.61079254 279.01455535 -202.16635132 277.95880127 C-199.91059844 277.2673987 -197.65476065 276.5762731 -195.39883423 275.88543701 C-189.0080346 273.92721539 -182.62168774 271.95566016 -176.2421875 269.9609375 C-175.54405945 269.74285431 -174.8459314 269.52477112 -174.12664795 269.30007935 C-171.03184166 268.33275869 -167.93808883 267.36224121 -164.84570312 266.38720703 C-163.29399414 265.9016333 -163.29399414 265.9016333 -161.7109375 265.40625 C-160.83743652 265.13103516 -159.96393555 264.85582031 -159.06396484 264.57226562 C-157 264 -157 264 -155 264 C-154.30112986 253.38450132 -154.30112986 253.38450132 -158.234375 243.890625 C-161.04752939 241.38831639 -163.92144544 239.16531891 -167 237 C-183.1732248 224.19980069 -192.11131667 205.63352949 -195.59765625 185.55859375 C-196.01599953 181.85848964 -196.09794993 178.28474216 -196.0625 174.5625 C-196.05347656 173.32628906 -196.04445313 172.09007812 -196.03515625 170.81640625 C-196.02355469 169.88699219 -196.01195312 168.95757812 -196 168 C-197.11375 168.061875 -198.2275 168.12375 -199.375 168.1875 C-208.33308133 168.14010274 -216.2172152 164.76926523 -223 159 C-232.2608652 149.05164699 -233.32803997 138.07063347 -233.15234375 124.95703125 C-232.8031291 115.88640456 -231.41651264 109.41651264 -224.8125 102.8125 C-221.08128878 100.40794166 -217.22944151 99.24943819 -213 98 C-213.06856201 97.07703125 -213.13712402 96.1540625 -213.20776367 95.203125 C-213.91206924 84.99353161 -214.24760859 74.81561341 -214.29516602 64.58203125 C-214.30672256 62.86059372 -214.32723204 61.13919302 -214.35668945 59.41796875 C-214.6042667 44.8344239 -213.34473988 30.90690762 -206.4375 17.75 C-206.10234375 17.09652588 -205.7671875 16.44305176 -205.421875 15.76977539 C-201.67257477 8.83881492 -196.64538528 3.42825507 -191 -2 C-190.35546875 -2.65226562 -189.7109375 -3.30453125 -189.046875 -3.9765625 C-142.2817596 -48.50508542 -45.58851446 -41.51681301 0 0 Z M-170 -7 C-171.00417969 -6.44570313 -172.00835937 -5.89140625 -173.04296875 -5.3203125 C-184.27866309 1.30383452 -192.7582715 10.61098307 -199 22 C-199.59748047 23.07121094 -199.59748047 23.07121094 -200.20703125 24.1640625 C-210.93571726 45.62143452 -207.09168002 75.87735112 -204 99 C-202.35 99.66 -200.7 100.32 -199 101 C-198.89042969 99.7934375 -198.78085938 98.586875 -198.66796875 97.34375 C-198.50838226 95.72911025 -198.34819381 94.11452992 -198.1875 92.5 C-198.08211914 91.31277344 -198.08211914 91.31277344 -197.97460938 90.1015625 C-197.41277936 84.61810156 -196.12951328 80.08749473 -194 75 C-192.02 75 -190.04 75 -188 75 C-187.76152344 75.69996094 -187.52304688 76.39992188 -187.27734375 77.12109375 C-181.27654121 90.6458383 -166.48453679 105.10004586 -155 114 C-154.34 114 -153.68 114 -153 114 C-153.32484375 112.5459375 -153.32484375 112.5459375 -153.65625 111.0625 C-158.39601754 88.7243073 -158.39601754 88.7243073 -154.7890625 78.6015625 C-153 76 -153 76 -150.3125 75.125 C-149.549375 75.08375 -148.78625 75.0425 -148 75 C-147.64808594 75.4626123 -147.29617187 75.92522461 -146.93359375 76.40185547 C-134.49565881 92.86369743 -134.49565881 92.86369743 -121.125 108.5625 C-120.64788574 109.0881958 -120.17077148 109.6138916 -119.67919922 110.15551758 C-117.13849122 112.95506564 -117.13849122 112.95506564 -114 115 C-114.10393066 114.09991211 -114.10393066 114.09991211 -114.20996094 113.18164062 C-114.88793604 106.94233954 -115.21292794 100.77444623 -115.25 94.5 C-115.270625 93.62730469 -115.29125 92.75460938 -115.3125 91.85546875 C-115.35573325 84.55985729 -114.41490783 77.34971086 -110.0625 71.3125 C-108 70 -108 70 -106.08984375 70.03125 C-102.83425347 71.54038344 -102.09729459 74.03144205 -100.5 77.1875 C-91.88284665 93.25626153 -78.13321062 106.08626984 -63 116 C-62.34 115.67 -61.68 115.34 -61 115 C-61.40992188 113.75605469 -61.81984375 112.51210937 -62.2421875 111.23046875 C-69.97684297 87.47726776 -69.97684297 87.47726776 -68 77 C-65.765625 76.66796875 -65.765625 76.66796875 -63 77 C-60.859375 79.23828125 -60.859375 79.23828125 -58.75 82.3125 C-57.96024165 83.42583532 -57.16852897 84.53778654 -56.375 85.6484375 C-55.77945313 86.49486816 -55.77945313 86.49486816 -55.171875 87.35839844 C-45.01805074 101.58221393 -30.93613031 117.92914447 -14 124 C-14.14308594 122.56720703 -14.14308594 122.56720703 -14.2890625 121.10546875 C-15.27330522 109.62645192 -14.83095817 100.22695397 -9 90 C-8.32679633 88.66995525 -7.65842367 87.33742308 -7 86 C-4.69 86 -2.38 86 0 86 C1.98 95.9 1.98 95.9 4 106 C5.464375 105.05125 6.92875 104.1025 8.4375 103.125 C13.11384467 100.09525556 17.59665604 98.99838739 23 98 C24.54475501 68.82129417 19.89048722 35.45793753 0.40625 12.62890625 C-19.94133287 -9.60148867 -52.25353037 -21.76512206 -82 -24 C-112.83498968 -25.19182643 -142.69569685 -22.56446957 -170 -7 Z M-107 83 C-109.05968086 92.24384769 -109.74359688 106.54461032 -104.89453125 114.90625 C-103.63243136 116.30426834 -102.31603493 117.65263091 -101 119 C-98.44635655 123.76738214 -96.58848566 128.8374216 -95 134 C-94.34 134 -93.68 134 -93 134 C-92.78085937 133.2265625 -92.56171875 132.453125 -92.3359375 131.65625 C-90.44113847 125.43268247 -88.50793133 120.61291259 -84.171875 115.71875 C-82.62444212 113.7958882 -82.62444212 113.7958882 -83 110 C-84.40817224 108.40413885 -84.40817224 108.40413885 -86.375 107 C-94.44527182 100.33450018 -100.66671262 91.94615947 -106 83 C-106.33 83 -106.66 83 -107 83 Z M-149 88 C-148.85970581 90.1462026 -148.71261836 92.29196218 -148.5625 94.4375 C-148.48128906 95.63246094 -148.40007812 96.82742187 -148.31640625 98.05859375 C-148.32343886 100.88570244 -148.32343886 100.88570244 -147 102 C-145.48071962 102.07179964 -143.95832518 102.08392007 -142.4375 102.0625 C-141.19806641 102.04896484 -141.19806641 102.04896484 -139.93359375 102.03515625 C-139.29550781 102.02355469 -138.65742188 102.01195312 -138 102 C-141.28157862 96.82390176 -144.45924219 92.14010271 -149 88 Z M-58 98 C-57.67 99.32 -57.34 100.64 -57 102 C-56.01 101.67 -55.02 101.34 -54 101 C-55.32 100.01 -56.64 99.02 -58 98 Z M13 109 C9.42089283 112.86166826 7.87430281 115.31401056 7.8671875 120.5234375 C7.86525391 121.45341553 7.86332031 122.38339355 7.86132812 123.34155273 C7.86583984 124.34259033 7.87035156 125.34362793 7.875 126.375 C7.87693359 127.394729 7.87886719 128.41445801 7.88085938 129.46508789 C7.93579762 139.32879257 8.39623588 149.15648858 9 159 C16.55912523 159.29753014 21.68731339 158.45853587 28 154 C35.38285658 146.44969719 36.34305747 139.26258227 36.3125 129.0625 C36.32861328 127.99064453 36.34472656 126.91878906 36.36132812 125.81445312 C36.36482503 120.16695502 36.3227292 115.80735288 33 111 C26.41523899 105.46281461 20.5036581 104.75264636 13 109 Z M-219.75 109.8125 C-224.38291159 114.3167196 -224.32317656 119.34876892 -224.41992188 125.48242188 C-224.42572266 126.54009766 -224.43152344 127.59777344 -224.4375 128.6875 C-224.47037109 129.72583984 -224.50324219 130.76417969 -224.53710938 131.83398438 C-224.5879601 139.20733924 -223.2761094 144.89746528 -219 151 C-212.71168402 156.98643466 -206.54452924 159.29962875 -198 160 C-197.01 159.505 -197.01 159.505 -196 159 C-196 155.04 -196 151.08 -196 147 C-198.05760221 145.80950848 -198.05760221 145.80950848 -200.875 145.8125 C-204 145 -204 145 -206.375 142.3125 C-208.08209402 138.8326545 -208.36320551 136.8136579 -208 133 C-205.69 133 -203.38 133 -201 133 C-200.34 134.98 -199.68 136.96 -199 139 C-198.34 139 -197.68 139 -197 139 C-197.11081889 135.47857223 -197.24122073 131.95812436 -197.375 128.4375 C-197.4059375 127.44685547 -197.436875 126.45621094 -197.46875 125.43554688 C-197.60547898 116.13731838 -197.60547898 116.13731838 -201.6875 108.125 C-208.33405115 104.89154269 -213.75623842 105.86206623 -219.75 109.8125 Z M-145 111 C-144.54705135 112.75140143 -144.08741252 114.50107344 -143.625 116.25 C-143.36976563 117.22453125 -143.11453125 118.1990625 -142.8515625 119.203125 C-142.10401491 121.65837303 -141.22876183 123.75617405 -140 126 C-138.68 125.34 -137.36 124.68 -136 124 C-135.01 124.66 -134.02 125.32 -133 126 C-133.40282985 131.02132092 -136.08366006 133.89940488 -139.3125 137.5 C-140.28830931 138.61410281 -141.2635782 139.72867922 -142.23828125 140.84375 C-142.93945068 141.64232422 -142.93945068 141.64232422 -143.65478516 142.45703125 C-147.46579254 146.23859413 -147.46579254 146.23859413 -149 151 C-150.98 151 -152.96 151 -155 151 C-155.8359375 148.94921875 -155.8359375 148.94921875 -156 146 C-154.53390256 143.33876449 -152.5967243 141.11364654 -150.625 138.8125 C-146.96340124 134.6410751 -146.96340124 134.6410751 -144 130 C-144.60585937 129.6596875 -145.21171875 129.319375 -145.8359375 128.96875 C-152.38342332 125.18128128 -158.20749351 120.85584587 -164 116 C-169.27681546 118.37057801 -172.55508485 122.03740419 -175.0859375 127.2265625 C-177.57474208 134.23631486 -177.02379155 140.73290818 -176 148 C-175.896875 148.82886719 -175.79375 149.65773437 -175.6875 150.51171875 C-174.35069282 158.49078659 -170.23511566 164.72138522 -163.6875 169.4375 C-153.78825148 175.39354786 -141.4712168 175.31001833 -130.4375 172.74609375 C-120.83795763 169.80777229 -113.38743747 164.6826293 -108.20703125 155.9921875 C-103.96120919 147.78292584 -101.53701664 140.2509289 -103.6875 131.0625 C-104.120625 130.381875 -104.55375 129.70125 -105 129 C-106.66475686 128.65725594 -108.33195323 128.32635698 -110 128 C-117.38398377 123.5104063 -123.91690111 117.08309889 -130 111 C-132.58064129 110.85502015 -135.04943884 110.81322455 -137.625 110.875 C-138.33140625 110.88402344 -139.0378125 110.89304688 -139.765625 110.90234375 C-141.51056098 110.92592397 -143.25532295 110.96179539 -145 111 Z M-54 111 C-51.525 118.425 -51.525 118.425 -49 126 C-47.35 125.34 -45.7 124.68 -44 124 C-43.01 124.66 -42.02 125.32 -41 126 C-41.36215626 131.32168503 -44.3354596 134.16118092 -47.75 137.9375 C-48.80763061 139.13381502 -49.8649255 140.33042693 -50.921875 141.52734375 C-51.43556641 142.10339355 -51.94925781 142.67944336 -52.47851562 143.27294922 C-54.70805524 145.80371996 -56.85459407 148.39770206 -59 151 C-60.65 150.67 -62.3 150.34 -64 150 C-63.6522137 144.13222083 -61.21434602 141.2932046 -57.4375 137.125 C-56.91736328 136.53203125 -56.39722656 135.9390625 -55.86132812 135.328125 C-54.58485851 133.87599443 -53.29385126 132.43666516 -52 131 C-53.35748093 128.28503814 -54.60190139 128.29014008 -57.4375 127.3125 C-62.5576529 125.38785142 -66.49797316 122.67016778 -70.7734375 119.29296875 C-72.87940135 117.79234392 -72.87940135 117.79234392 -75.12890625 118.14453125 C-79.03342327 119.92968621 -81.23088986 123.3458028 -82.984375 127.1171875 C-86.21835518 135.93435987 -85.4179658 143.39331504 -82 152 C-77.23513244 161.68681867 -70.04901087 168.1315086 -60 172 C-49.5346039 175.21496968 -36.65412473 175.76327799 -26.65625 170.84765625 C-19.51162372 166.54897277 -14.98261334 161.25848443 -12.93359375 153.109375 C-10.76275521 143.54270816 -10.76275521 143.54270816 -12 134 C-14.38588473 132.02293587 -17.0548083 130.87163251 -19.875 129.625 C-28.65349292 125.38469739 -35.87156718 120.54192218 -42.49609375 113.25390625 C-44.75959333 110.83011477 -44.75959333 110.83011477 -47.45703125 110.51171875 C-49.63802083 110.67447917 -51.81901042 110.83723958 -54 111 Z M-187 93 C-187.17797742 103.57988636 -187.34385273 114.15988929 -187.49477577 124.74019814 C-187.56524403 129.65438649 -187.63969728 134.56844364 -187.72363281 139.48242188 C-187.80465932 144.23504308 -187.87472816 148.98771688 -187.93757248 153.74061203 C-187.96326267 155.54330659 -187.99273422 157.34595183 -188.02626419 159.14851761 C-188.47571436 183.6635941 -184.76246972 207.43488434 -167.28125 225.85693359 C-163.3334806 229.84401801 -159.08153693 233.39459402 -154.67578125 236.859375 C-152.05337122 238.95730302 -149.59089963 241.15883346 -147.125 243.4375 C-128.40338011 260.38175091 -111.10692726 268.25799983 -85.48144531 267.1640625 C-71.22739326 266.22164584 -59.56544139 259.14850173 -49 250 C-47.91996169 249.07991758 -46.83919002 248.16069555 -45.7578125 247.2421875 C-43.38389085 245.22154393 -41.0210612 243.18878632 -38.6640625 241.1484375 C-36.22409083 239.04041698 -33.76086758 236.96583361 -31.2734375 234.9140625 C-15.47506707 221.82008775 -3.70285094 205.88118574 -1 185 C-0.34513306 175.61118363 -0.47195288 166.19547092 -0.55047607 156.78985596 C-0.56642726 154.08374152 -0.55640314 151.37797617 -0.54674721 148.67185211 C0.78009274 123.9759114 0.78009274 123.9759114 -6 101 C-8.4147121 108.24413631 -7.58601024 116.69550218 -5.5 123.9375 C-1.955251 136.64795712 -3.27831681 151.51035755 -8.875 163.5 C-13.67966695 171.92609502 -20.03908765 176.85231834 -29.1875 180.1484375 C-43.85910614 183.42549707 -59.28316102 181.48683623 -72.375 174.1875 C-84.29457813 166.43398801 -89.97223998 155.73115729 -93 142 C-93.66 142 -94.32 142 -95 142 C-95.21914062 142.82242188 -95.43828125 143.64484375 -95.6640625 144.4921875 C-99.41339725 157.69106511 -105.45526508 168.8707198 -117.6875 175.8671875 C-130.58056135 182.18304526 -147.4926457 183.94016057 -161.3125 179.4375 C-169.4302829 175.7239075 -176.42404698 170.3219789 -180 162 C-184.60766965 149.13186996 -186.32187804 135.84436954 -181.421875 122.7421875 C-179.03817814 118.14505785 -175.71233724 114.5681688 -172 111 C-173.61298564 107.14523771 -176.11513814 104.48366148 -178.9375 101.4375 C-179.81277344 100.48746094 -180.68804687 99.53742188 -181.58984375 98.55859375 C-183.36681424 96.67218262 -185.16197674 94.82538623 -187 93 Z M-146 255 C-146.07489276 259.10757963 -146.12894754 263.2148876 -146.16479492 267.32299805 C-146.17975938 268.71662328 -146.20013851 270.11020244 -146.22631836 271.50366211 C-146.4575064 284.13740835 -145.47712148 292.37319328 -136.51953125 301.70703125 C-123.7074443 313.36702356 -106.46929583 316.73415263 -89.6640625 316.30859375 C-74.95660982 315.5759571 -58.6148259 310.14924591 -48.55078125 299.05078125 C-43.5089459 292.38336674 -41.8672135 286.33761395 -41.90234375 278.046875 C-41.9037587 277.38665344 -41.90517365 276.72643188 -41.90663147 276.04620361 C-41.91220755 273.94742206 -41.92475553 271.84874905 -41.9375 269.75 C-41.9425181 268.32291821 -41.94708046 266.89583475 -41.95117188 265.46875 C-41.96216912 261.97913168 -41.9794172 258.48957644 -42 255 C-42.52239258 255.39759521 -43.04478516 255.79519043 -43.58300781 256.20483398 C-61.48804738 269.74907684 -81.18469352 277.44674852 -103.875 274.49609375 C-119.68370285 272.01962313 -133.84854491 265.46674008 -146 255 Z M-160 274 C-162.90788118 280.56217036 -159.67381076 290.81332987 -157.375 297.25 C-150.79295777 311.95712734 -137.54664794 320.3439522 -123 326 C-101.35425161 333.07702629 -77.13479488 332.23361612 -56.5625 322.3125 C-42.33348401 314.98940091 -33.25244258 304.25436649 -28.3984375 289.125 C-27.84043291 286.14897553 -27.90725598 283.2744023 -27.9375 280.25 C-27.94652344 279.07953125 -27.95554687 277.9090625 -27.96484375 276.703125 C-27.97644531 275.81109375 -27.98804688 274.9190625 -28 274 C-29.65 273.67 -31.3 273.34 -33 273 C-33.12955078 274.41539062 -33.12955078 274.41539062 -33.26171875 275.859375 C-34.69274361 288.93552879 -37.80642895 299.95647286 -48 309 C-60.17219007 318.39974116 -74.82083256 322.87759677 -90 324 C-90.6496875 324.05414063 -91.299375 324.10828125 -91.96875 324.1640625 C-108.73132917 324.87324854 -126.8139305 319.24898549 -140 309 C-148.41109395 301.14114959 -152.27300272 293.3120615 -153.75 282 C-153.87503906 281.12988281 -154.00007812 280.25976562 -154.12890625 279.36328125 C-154.43167185 277.24392208 -154.71761438 275.12217074 -155 273 C-157.21081851 272.89459074 -157.21081851 272.89459074 -160 274 Z M-175.69946289 278.70898438 C-176.92327164 279.08357788 -178.14708038 279.45817139 -179.40797424 279.84411621 C-180.76290352 280.26054604 -182.11779649 280.67709403 -183.47265625 281.09375 C-184.87103555 281.52303039 -186.26942748 281.95226961 -187.66783142 282.38146973 C-190.62155804 283.28845859 -193.57492022 284.19662362 -196.52807617 285.10546875 C-199.50925387 286.02277883 -202.49100862 286.93816921 -205.47338867 287.8515625 C-215.32559518 290.86928467 -225.1691338 293.91342483 -235 297 C-236.20420593 297.37753418 -237.40841187 297.75506836 -238.64910889 298.14404297 C-241.91539349 299.17553176 -245.17546197 300.22432918 -248.43359375 301.28125 C-249.35543961 301.57205444 -250.27728546 301.86285889 -251.22706604 302.16247559 C-262.17915188 305.7722011 -271.34487451 311.44724849 -280 319 C-280.92232422 319.77923828 -280.92232422 319.77923828 -281.86328125 320.57421875 C-294.95989691 332.52676224 -303.44874221 351.6021718 -304.25985718 369.14129639 C-304.38035977 373.68582317 -304.3392442 378.22810099 -304.29296875 382.7734375 C-304.2885428 384.24845029 -304.2854916 385.72346785 -304.28381348 387.19848633 C-304.26825973 392.59073069 -304.22637726 397.98287335 -304.1875 403.375 C-304.125625 415.46125 -304.06375 427.5475 -304 440 C-277.93 440 -251.86 440 -225 440 C-224.67 428.12 -224.34 416.24 -224 404 C-223.67 403.34 -223.34 402.68 -223 402 C-221.35 402 -219.7 402 -218 402 C-212.32745403 413.34509194 -216.35220299 427.32069237 -216 440 C-135.48 440 -54.96 440 28 440 C28.33 428.12 28.66 416.24 29 404 C29.33 403.34 29.66 402.68 30 402 C31.65 402 33.3 402 35 402 C40.67254597 413.34509194 36.64779701 427.32069237 37 440 C63.07 440 89.14 440 116 440 C116.0825 427.955 116.165 415.91 116.25 403.5 C116.28641602 399.73013672 116.32283203 395.96027344 116.36035156 392.07617188 C116.37374871 388.62628895 116.37374871 388.62628895 116.3817749 385.1763916 C116.3878223 383.66787969 116.4016868 382.15938414 116.42230225 380.65100098 C116.60339105 366.67327741 114.99150368 353.16402553 108.25 340.625 C107.90783447 339.96636963 107.56566895 339.30773926 107.21313477 338.62915039 C104.12067828 332.86320628 100.4113448 327.83533909 96 323 C95.48308594 322.3915625 94.96617187 321.783125 94.43359375 321.15625 C81.86448297 307.29557646 63.20829953 301.86456087 45.921875 296.55078125 C44.29895456 296.04749797 42.67617475 295.54376101 41.05352783 295.03959656 C37.67609756 293.99150664 34.29752758 292.94721141 30.91796875 291.90600586 C26.6037559 290.57676521 22.2917646 289.24048762 17.98051071 287.90168476 C14.6386719 286.86429654 11.29608248 285.82934591 7.95322418 284.79524803 C6.36319466 284.30333099 4.77330247 283.81096977 3.1835556 283.31814003 C0.95997712 282.62950265 -1.26449622 281.94383731 -3.48925781 281.2590332 C-4.74990051 280.86996292 -6.01054321 280.48089264 -7.30938721 280.08003235 C-11.18756286 278.94511102 -15.07415758 277.95495803 -19 277 C-19.15855469 278.08796875 -19.31710937 279.1759375 -19.48046875 280.296875 C-22.31826708 298.62955446 -28.67275545 312.71466589 -44 324 C-65.3914052 337.13365105 -90.46241482 341.06038277 -115 336 C-133.60065708 331.51992136 -151.01626227 322.80958394 -161.34765625 306.09765625 C-166.27110411 296.86764643 -167.84107503 287.30833261 -169 277 C-171.23257181 277 -173.60272104 278.06610983 -175.69946289 278.70898438 Z " fill="#FBFBFB" transform="translate(350,48)"/>
<path d="M0 0 C1.125 2.3125 1.125 2.3125 2 5 C1.34 5.99 0.68 6.98 0 8 C-2.73046875 8.37109375 -2.73046875 8.37109375 -6.1875 8.4375 C-22.76953998 9.32096934 -36.48834344 15.20290378 -49 26 C-49.98226562 26.83917969 -49.98226562 26.83917969 -50.984375 27.6953125 C-58.53725861 34.67417696 -63.72492211 43.72348562 -69.109375 52.3984375 C-71 55 -71 55 -74 56 C-76.1875 54.5625 -76.1875 54.5625 -78 53 C-76.65607739 42.75968828 -67.60870759 32.54378285 -61 25 C-60.33613281 24.24074219 -59.67226562 23.48148438 -58.98828125 22.69921875 C-49.96300449 13.04000389 -38.45814469 6.27238968 -26 2 C-25.29101562 1.75507812 -24.58203125 1.51015625 -23.8515625 1.2578125 C-16.18303729 -0.88702405 -7.88573159 -0.16296575 0 0 Z " fill="#F8F8F8" transform="translate(232,37)"/>
<path d="M0 0 C0.88945312 0.10957031 1.77890625 0.21914062 2.6953125 0.33203125 C3.5078125 2.9375 3.5078125 2.9375 3.6953125 6.33203125 C2.10004694 8.74003627 0.65214924 10.57759516 -1.3046875 12.64453125 C-2.33000586 13.77824972 -3.35344046 14.91367465 -4.375 16.05078125 C-4.87805664 16.60378906 -5.38111328 17.15679687 -5.89941406 17.7265625 C-8.39562981 20.57838925 -10.53052792 23.69798181 -12.671875 26.8203125 C-14.3046875 28.33203125 -14.3046875 28.33203125 -17 28.5625 C-17.76054687 28.48644531 -18.52109375 28.41039062 -19.3046875 28.33203125 C-20.5078125 26.1484375 -20.5078125 26.1484375 -21.3046875 23.33203125 C-20.1015625 20.859375 -20.1015625 20.859375 -18.0546875 18.26953125 C-17.30960938 17.32335937 -16.56453125 16.3771875 -15.796875 15.40234375 C-14.97445312 14.38914063 -14.15203125 13.3759375 -13.3046875 12.33203125 C-12.4504856 11.20642521 -11.59895471 10.07878758 -10.75 8.94921875 C-9.89498108 7.84629589 -9.03824492 6.74470186 -8.1796875 5.64453125 C-7.00019531 4.12279297 -7.00019531 4.12279297 -5.796875 2.5703125 C-3.3046875 0.33203125 -3.3046875 0.33203125 0 0 Z " fill="#EFEFEF" transform="translate(223.3046875,180.66796875)"/>
<path d="M0 0 C2.35546875 0.4296875 2.35546875 0.4296875 4.35546875 2.4296875 C4.05158475 6.34350387 2.8108102 8.54686369 0.30078125 11.49609375 C-0.31410156 12.22892578 -0.92898438 12.96175781 -1.5625 13.71679688 C-2.20832031 14.46767578 -2.85414063 15.21855469 -3.51953125 15.9921875 C-4.7883545 17.49298753 -6.05660314 18.99427358 -7.32421875 20.49609375 C-8.17089111 21.4852478 -8.17089111 21.4852478 -9.03466797 22.49438477 C-10.69280542 24.43213705 -10.69280542 24.43213705 -12.19189453 26.64819336 C-13.64453125 28.4296875 -13.64453125 28.4296875 -16.20703125 28.8671875 C-17.01140625 28.7228125 -17.81578125 28.5784375 -18.64453125 28.4296875 C-20.64453125 25.4296875 -20.64453125 25.4296875 -20.48828125 23.52734375 C-19.42348147 20.88013319 -17.96813736 19.06347501 -16.14453125 16.8671875 C-13.80842223 14.05295204 -11.50329951 11.24395488 -9.2890625 8.33203125 C-8.51949219 7.33300781 -7.74992187 6.33398438 -6.95703125 5.3046875 C-5.89935547 3.90863281 -5.89935547 3.90863281 -4.8203125 2.484375 C-2.64453125 0.4296875 -2.64453125 0.4296875 0 0 Z " fill="#F3F3F3" transform="translate(314.64453125,180.5703125)"/>
<path d="M0 0 C1.125 4.75 1.125 4.75 0 7 C-1.423125 7.556875 -1.423125 7.556875 -2.875 8.125 C-6.71927501 10.43156501 -7.10601756 12.07163469 -8.1640625 16.2578125 C-9 18 -9 18 -10.8984375 18.8671875 C-13 19 -13 19 -16 17 C-16.67221043 12.10246684 -15.93926741 8.67165944 -13.3359375 4.58203125 C-9.78818113 0.38074081 -5.44382351 -1.97957219 0 0 Z " fill="#F9F9F9" transform="translate(147,165)"/>
<path d="M0 0 C3.85238529 2.38480994 5.8438217 5.49118202 7.625 9.625 C8.00147029 12.13323328 7.89048655 14.07632913 7.625 16.625 C5.3125 17.75 5.3125 17.75 2.625 18.625 C-0.375 16.625 -0.375 16.625 -1.3125 13.25 C-2.07483963 9.57539981 -2.07483963 9.57539981 -4.5625 7.4375 C-5.160625 6.839375 -5.75875 6.24125 -6.375 5.625 C-6.3125 3.5 -6.3125 3.5 -5.375 1.625 C-2.375 -0.375 -2.375 -0.375 0 0 Z " fill="#F5F5F5" transform="translate(373.375,165.375)"/>
<path d="M0 0 C2 0.875 2 0.875 3.4375 3.0625 C4.20211081 6.88555403 2.99636093 8.62167108 1 11.875 C0 12.875 0 12.875 -2.4375 13.0625 C-5 12.875 -5 12.875 -7 10.875 C-6.61442019 7.30838671 -5.52866562 4.11217425 -4 0.875 C-2 -0.125 -2 -0.125 0 0 Z " fill="#F7F7F7" transform="translate(367,180.125)"/>
</svg>
